<svg width="52" height="47" viewBox="0 0 52 47" fill="none" xmlns="http://www.w3.org/2000/svg">
<circle cx="26" cy="20" r="20" fill="url(#paint0_linear_451_26430)"/>
<g filter="url(#filter0_d_451_26430)">
<path d="M24 23L29.19 20L24 17V23ZM35.56 15.17C35.69 15.64 35.78 16.27 35.84 17.07C35.91 17.87 35.94 18.56 35.94 19.16L36 20C36 22.19 35.84 23.8 35.56 24.83C35.31 25.73 34.73 26.31 33.83 26.56C33.36 26.69 32.5 26.78 31.18 26.84C29.88 26.91 28.69 26.94 27.59 26.94L26 27C21.81 27 19.2 26.84 18.17 26.56C17.27 26.31 16.69 25.73 16.44 24.83C16.31 24.36 16.22 23.73 16.16 22.93C16.09 22.13 16.06 21.44 16.06 20.84L16 20C16 17.81 16.16 16.2 16.44 15.17C16.69 14.27 17.27 13.69 18.17 13.44C18.64 13.31 19.5 13.22 20.82 13.16C22.12 13.09 23.31 13.06 24.41 13.06L26 13C30.19 13 32.8 13.16 33.83 13.44C34.73 13.69 35.31 14.27 35.56 15.17Z" fill="#00C844"/>
</g>
<defs>
<filter id="filter0_d_451_26430" x="0" y="1" width="52" height="46" filterUnits="userSpaceOnUse" color-interpolation-filters="sRGB">
<feFlood flood-opacity="0" result="BackgroundImageFix"/>
<feColorMatrix in="SourceAlpha" type="matrix" values="0 0 0 0 0 0 0 0 0 0 0 0 0 0 0 0 0 0 127 0" result="hardAlpha"/>
<feOffset dy="4"/>
<feGaussianBlur stdDeviation="8"/>
<feComposite in2="hardAlpha" operator="out"/>
<feColorMatrix type="matrix" values="0 0 0 0 0 0 0 0 0 0 0 0 0 0 0 0 0 0 0.5 0"/>
<feBlend mode="normal" in2="BackgroundImageFix" result="effect1_dropShadow_451_26430"/>
<feBlend mode="normal" in="SourceGraphic" in2="effect1_dropShadow_451_26430" result="shape"/>
</filter>
<linearGradient id="paint0_linear_451_26430" x1="26" y1="0" x2="26" y2="40" gradientUnits="userSpaceOnUse">
<stop stop-color="#00C844"/>
<stop offset="1" stop-color="#181818"/>
<stop offset="1"/>
</linearGradient>
</defs>
</svg>
